<svg width="1000" height="1000" viewBox="0 0 75 75" fill="none" xmlns="http://www.w3.org/2000/svg">
<path d="M23.7063 23.7063C27.4973 19.9154 32.6388 17.7857 38 17.7857C43.3612 17.7857 48.5027 19.9154 52.2937 23.7063C56.0846 27.4973 58.2143 32.6388 58.2143 38C58.2143 43.3612 56.0846 48.5027 52.2937 52.2937C48.5027 56.0846 43.3612 58.2143 38 58.2143C32.6388 58.2143 27.4973 56.0846 23.7063 52.2937C19.9154 48.5027 17.7857 43.3612 17.7857 38C17.7857 32.6388 19.9154 27.4973 23.7063 23.7063ZM58.8596 58.8596C64.392 53.3273 67.5 45.8239 67.5 38C67.5 30.1761 64.392 22.6727 58.8596 17.1403C53.3273 11.608 45.8239 8.5 38 8.5C30.1761 8.5 22.6727 11.608 17.1403 17.1403C11.608 22.6727 8.5 30.1761 8.5 38C8.5 45.8239 11.608 53.3273 17.1403 58.8596C22.6727 64.392 30.1761 67.5 38 67.5C45.8239 67.5 53.3273 64.392 58.8596 58.8596Z" fill="#FF4343" stroke="#FF4343"/>
</svg>
