<svg width="1000" height="1000" viewBox="0 0 75 75" fill="none" xmlns="http://www.w3.org/2000/svg">
<path d="M55.0457 12.8496L37.5001 30.398L19.9602 12.8526L19.9601 12.8524C19.0183 11.9107 17.741 11.3816 16.4092 11.3816C15.0773 11.3816 13.8 11.9107 12.8583 12.8524C11.9165 13.7942 11.3875 15.0715 11.3875 16.4033C11.3875 17.7351 11.9165 19.0123 12.8581 19.954C12.8582 19.9541 12.8582 19.9542 12.8583 19.9542L30.3982 37.4997L12.8526 55.0398L12.8524 55.0399C11.9107 55.9817 11.3816 57.259 11.3816 58.5908C11.3816 59.9227 11.9107 61.2 12.8524 62.1417C13.7942 63.0835 15.0715 63.6125 16.4033 63.6125C17.7352 63.6125 19.0125 63.0835 19.9542 62.1417L37.4997 44.6018L55.0398 62.1474L55.0399 62.1476C55.9817 63.0893 57.259 63.6184 58.5908 63.6184C59.9227 63.6184 61.2 63.0893 62.1417 62.1476C63.0835 61.2058 63.6125 59.9285 63.6125 58.5967C63.6125 57.2649 63.0835 55.9877 62.1419 55.0459C62.1418 55.0459 62.1418 55.0458 62.1417 55.0458L44.6015 37.5001L62.1476 19.9513C63.0893 19.0095 63.6184 17.7322 63.6184 16.4004C63.6184 15.0685 63.0893 13.7912 62.1476 12.8495C61.2058 11.9077 59.9285 11.3787 58.5967 11.3787C57.2648 11.3787 55.9875 11.9077 55.0458 12.8495L55.0457 12.8496Z" fill="white" stroke="white" stroke-width="3"/>
</svg>
